<?xml version="1.0" standalone="no"?>
<!DOCTYPE svg PUBLIC "-//W3C//DTD SVG 20010904//EN"
 "http://www.w3.org/TR/2001/REC-SVG-20010904/DTD/svg10.dtd">
<svg version="1.0" xmlns="http://www.w3.org/2000/svg"
 width="237.000000pt" height="237.000000pt" viewBox="0 0 237.000000 237.000000"
 preserveAspectRatio="xMidYMid meet">
<metadata>
Created by potrace 1.14, written by Peter Selinger 2001-2017
</metadata>
<g transform="translate(0.000000,237.000000) scale(0.100000,-0.100000)"
fill="#000000" stroke="none">
<path d="M748 1725 c-2 -1 -59 -6 -128 -10 -69 -3 -143 -8 -165 -10 -22 -2
-85 -7 -140 -10 -249 -14 -263 -17 -291 -60 -20 -30 -29 -203 -13 -252 11 -33
73 -88 88 -78 5 3 13 0 17 -6 4 -8 9 -7 15 2 6 10 9 11 9 2 0 -7 5 -13 11 -13
5 0 8 4 5 8 -3 5 1 9 9 9 8 0 12 -4 9 -9 -3 -4 0 -8 5 -8 6 0 11 5 11 10 0 6
5 10 11 10 5 0 8 -4 5 -9 -3 -4 5 -7 18 -6 48 6 50 0 61 -269 4 -87 10 -170
14 -184 9 -33 71 -83 108 -87 15 -1 35 -5 43 -9 29 -12 79 -13 84 -2 3 7 5 7
5 -1 1 -7 9 -13 19 -13 14 0 15 2 2 10 -21 14 -6 12 26 -2 23 -11 28 -10 41 7
14 18 15 18 9 2 -4 -13 -2 -17 6 -14 7 2 12 10 11 16 -2 6 2 11 7 11 6 0 10
-5 10 -12 0 -6 11 -1 25 12 13 12 22 27 19 31 -3 5 0 9 5 9 15 0 14 53 -1 69
-10 11 -10 12 -1 7 17 -10 10 234 -7 244 -8 5 -8 9 2 13 11 4 28 -34 66 -147
65 -189 78 -213 126 -244 21 -13 35 -18 31 -10 -6 10 -5 11 6 0 16 -14 43 -16
34 -2 -3 6 -2 10 4 10 5 0 11 -4 13 -10 5 -13 150 94 170 127 20 31 23 63 7
63 -5 0 -8 4 -4 10 9 15 -6 61 -18 53 -6 -3 -7 -1 -3 6 8 12 -13 111 -23 111
-3 0 -6 13 -6 29 0 16 3 27 6 25 7 -4 101 90 97 97 -2 2 0 2 4 -1 3 -3 9 -72
12 -155 9 -206 15 -256 32 -282 16 -25 88 -66 98 -56 3 4 6 2 6 -4 0 -6 19
-10 44 -9 24 1 42 -2 40 -6 -3 -5 0 -8 5 -8 6 0 11 5 11 10 0 6 5 10 11 10 5
0 8 -3 6 -7 -3 -5 6 -9 19 -9 14 -1 21 2 18 8 -4 6 3 5 15 -1 16 -9 21 -9 21
1 0 8 3 9 8 3 13 -19 35 -17 28 2 -4 10 10 -1 31 -24 51 -55 114 -81 142 -59
11 8 13 8 7 -2 -4 -6 -2 -12 3 -12 6 0 11 5 11 10 0 6 5 10 11 10 5 0 8 -3 6
-7 -3 -5 10 -9 29 -9 20 -1 31 3 27 9 -3 5 -1 7 5 3 5 -3 12 -3 15 1 2 5 2 2
1 -4 -2 -7 -1 -13 1 -13 7 0 78 40 94 54 11 8 13 8 7 -1 -7 -13 73 -10 231 9
6 1 24 11 38 22 29 24 37 57 39 163 1 39 4 69 7 67 4 -2 7 7 7 21 0 14 -4 22
-9 20 -4 -3 -11 0 -15 6 -4 8 -3 9 5 5 16 -11 26 22 11 39 -11 13 -10 14 1 10
10 -4 15 3 17 21 2 21 -1 25 -16 20 -15 -5 -15 -4 -2 7 8 6 16 19 18 26 10 44
10 96 1 112 -7 14 -6 17 3 14 9 -4 13 6 14 29 1 28 -2 33 -15 29 -15 -5 -15
-4 0 8 18 15 33 73 16 62 -6 -4 -7 -1 -1 8 5 8 9 28 10 44 1 17 5 48 9 69 6
28 5 37 -4 32 -8 -5 -8 0 1 19 10 22 9 28 -3 36 -10 6 -10 9 -1 9 6 0 12 5 12
11 0 5 -6 7 -12 3 -10 -6 -10 -5 -1 7 9 11 7 19 -7 36 -23 29 -91 64 -115 59
-11 -2 -71 -7 -134 -11 -62 -3 -123 -10 -135 -15 -35 -13 -58 -47 -63 -95 -5
-43 -23 -64 -23 -27 0 10 -6 24 -12 31 -10 10 -10 12 -1 7 9 -5 10 0 1 24 -15
43 -78 83 -131 84 -38 0 -181 -8 -327 -19 -209 -16 -220 -16 -253 2 -31 17
-162 23 -287 14 -25 -1 -59 -1 -77 2 -17 3 -33 4 -35 2z m1597 -203 c-3 -3
-11 0 -18 7 -9 10 -8 11 6 5 10 -3 15 -9 12 -12z m-22 -107 c-3 -9 -8 -14 -10
-11 -3 3 -2 9 2 15 9 16 15 13 8 -4z m-1128 -165 c3 -5 1 -10 -4 -10 -6 0 -11
5 -11 10 0 6 2 10 4 10 3 0 8 -4 11 -10z m-29 -48 c-17 -16 -18 -16 -5 5 7 12
15 20 18 17 3 -2 -3 -12 -13 -22z m-26 -16 c0 -2 -7 -7 -16 -10 -8 -3 -12 -2
-9 4 6 10 25 14 25 6z m-30 -56 c0 -5 -2 -10 -4 -10 -3 0 -8 5 -11 10 -3 6 -1
10 4 10 6 0 11 -4 11 -10z m-396 -200 c-6 -6 -10 -3 -10 10 0 13 4 16 10 10 7
-7 7 -13 0 -20z m1576 -20 c0 -5 -2 -10 -4 -10 -3 0 -8 5 -11 10 -3 6 -1 10 4
10 6 0 11 -4 11 -10z m-1599 -123 c-6 -8 -7 -18 -3 -22 4 -5 1 -5 -6 -1 -10 6
-10 11 -1 22 6 8 14 14 16 14 3 0 0 -6 -6 -13z m379 8 c0 -2 -10 -9 -22 -15
-22 -11 -22 -10 -4 4 21 17 26 19 26 11z m1204 -27 c-4 -5 -9 -7 -12 -4 -3 3
-12 0 -21 -7 -14 -10 -14 -10 -4 4 13 16 46 23 37 7z m-227 -64 c-3 -3 -12 -4
-19 -1 -8 3 -5 6 6 6 11 1 17 -2 13 -5z"/>
</g>
</svg>
